<svg xmlns="http://www.w3.org/2000/svg" width="358" height="84" fill="none" viewBox="0 0 358 84">
    <g clip-path="url(#a)" filter="url(#b)">
        <path fill="#0084D4" fill-rule="evenodd" d="M18.528 13.856V1.391h62.55v62.656h-62.55V30.979h7.814v25.26h46.922V9.214H26.342v4.642h-7.814zM2.315 81.666V19.012h62.55v32.57h-7.814V26.834H10.13v47.01H57.05V68.69h7.814v12.977H2.315z" clip-rule="evenodd"/>
        <path fill="#fff" fill-rule="evenodd" d="M310.902 31.421h-19.243v16.633h21.471v4.35h-26.619V6.487h26.436v4.35h-21.288V27.25h19.243v4.171zM147.974 52.368h5.148V6.487h-5.148v45.88zm-26.766-4.314h-10.699V31.238h11.101c5.842 0 9.603 3.4 9.603 8.628 0 5.117-3.724 8.188-10.005 8.188zM110.509 10.84h9.348c5.843 0 9.202 2.852 9.202 7.53 0 5.375-3.396 8.774-8.618 8.774h-9.968V10.841h.036zm16.323 17.913c4.892-1.5 7.522-5.3 7.522-10.784 0-7.202-5.368-11.479-14.497-11.479h-14.496v45.878h15.847c9.604 0 15.3-4.68 15.3-12.539 0-5.483-3.579-9.65-9.676-11.076zm50.28-17.912h-12.926V6.487h30.892v4.35h-12.817v41.527h-5.149V10.84zm25.378 0h12.963v41.527h5.148V10.84h12.817V6.487h-30.891v4.35l-.037.004zm60.98 23.14c6.098-1.427 9.968-6.033 9.968-13.453 0-8.81-5.952-14.038-16.066-14.038h-13.219v45.878h5.149V34.602h9.896l9.968 17.766h6.098l-10.443-17.035-1.351-1.353zm79.967-5.009l13.62-22.409h-6.244l-10.224 18.205-.402 1.755-.401-1.755-10.225-18.205h-6.171l13.62 22.409-14.021 23.432h6.317l10.516-18.866.402-1.755.401 1.755L351.178 52.4h6.317l-14.058-23.429zm-94.171 1.572h8.727c6.098 0 10.224-3.327 10.224-9.98 0-6.104-3.652-9.687-9.896-9.687h-9.092v19.667h.037z" clip-rule="evenodd"/>
        <path fill="#fff" d="M120.82 73.102v-1.18h5.949v7.625s-1.669 1.305-5.244 1.305c-5.189 0-8.267-3.396-8.267-9.165 0-5.509 3.338-9.164 8.293-9.164 3.078 0 4.462.884 4.462.884v1.36s-1.358-1.02-4.462-1.02c-4.094 0-6.832 3.162-6.832 7.911 0 5.015 2.53 7.966 6.806 7.966.99 0 2.688-.183 3.94-.94v-5.582h-4.645zM169.101 80.52h-9.443V62.866h1.435v16.398h8.008v1.254zM200.529 71.695c0-6.058 3.702-9.165 8.004-9.165 4.301 0 8.015 3.107 8.015 9.165 0 6.057-3.703 9.164-8.008 9.164s-8.011-3.089-8.011-9.164zm1.46 0c0 5.351 3.024 7.936 6.544 7.936 3.52 0 6.554-2.592 6.554-7.936 0-5.345-3.023-7.94-6.547-7.94-3.524 0-6.551 2.584-6.551 7.94zM254.388 62.867c3.52 0 5.579 1.645 5.579 4.415 0 2.139-1.044 3.55-3.023 4.15 2.425.573 3.86 2.193 3.86 4.254 0 3.03-2.191 4.833-5.897 4.833h-5.861V62.866h5.342zm.391 8.096c2.216 0 3.702-1.462 3.702-3.68 0-1.986-1.511-3.163-4.093-3.163h-3.914v6.843h4.305zm.128 8.328c2.767 0 4.41-1.33 4.41-3.605 0-2.138-1.643-3.575-4.096-3.575h-4.747v7.18h4.433zM294.528 76.308l-1.435 4.204h-1.592l6.259-17.653h1.358l6.259 17.653h-1.592l-1.428-4.204h-7.829zm7.405-1.177l-3.443-10.024-.077-.574-.08.574-3.414 10.024h7.014zM347.055 80.52h-9.439V62.866h1.431v16.398h8.008v1.254z"/>
    </g>
    <defs>
        <filter id="b" width="415.18" height="140.276" x="-27.685" y="-28.609" color-interpolation-filters="sRGB" filterUnits="userSpaceOnUse">
            <feFlood flood-opacity="0" result="BackgroundImageFix"/>
            <feColorMatrix in="SourceAlpha" values="0 0 0 0 0 0 0 0 0 0 0 0 0 0 0 0 0 0 127 0"/>
            <feOffset/>
            <feGaussianBlur stdDeviation="15"/>
            <feColorMatrix values="0 0 0 0 0.0745098 0 0 0 0 0.25098 0 0 0 0 0.411765 0 0 0 1 0"/>
            <feBlend in2="BackgroundImageFix" result="effect1_dropShadow"/>
            <feBlend in="SourceGraphic" in2="effect1_dropShadow" result="shape"/>
        </filter>
        <clipPath id="a">
            <path fill="#fff" d="M0 0h358v84H0z"/>
        </clipPath>
    </defs>
</svg>
